<svg version="1.1" id="Layer_1" xmlns="http://www.w3.org/2000/svg" xmlns:xlink="http://www.w3.org/1999/xlink" x="0px" y="0px"
	 width="100%" viewBox="0 0 781 208" enable-background="new 0 0 781 208" xml:space="preserve">
<path fill="#71ACD4" opacity="1.000000" stroke="none" 
	d="
M1.000000,192.000000 
	C1.000000,128.357529 1.000000,64.715057 1.000000,1.036294 
	C261.210205,1.036294 521.420410,1.036294 782.000000,1.036294 
	C782.000000,55.355419 782.000000,109.711678 781.613281,164.456970 
	C777.236511,164.259735 773.246338,163.673447 769.208069,162.826385 
	C769.132263,162.391159 769.104675,162.216736 769.249817,161.685608 
	C769.159851,157.728790 769.061890,154.106781 768.586792,150.534943 
	C768.134766,147.136749 765.804932,145.336884 762.570251,146.377930 
	C759.755493,147.283813 757.230652,149.147995 754.650146,150.708527 
	C751.939514,152.347672 748.857483,156.033401 746.731445,155.522415 
	C736.994263,153.182205 729.992188,157.783401 722.964111,162.998749 
	C722.966736,162.962067 723.040161,162.965851 722.890991,163.091248 
	C722.541443,163.385559 722.379272,163.585495 721.848633,163.888367 
	C708.761047,167.346436 696.415833,163.848572 684.235168,161.884125 
	C686.872498,160.456207 689.176575,159.054016 691.661499,158.147476 
	C696.466614,156.394501 697.177734,152.897308 697.181213,148.278168 
	C697.184814,143.467133 693.736389,142.799667 690.745483,142.058258 
	C684.101196,140.411194 681.304993,136.480728 682.113220,129.812134 
	C682.534851,126.333435 680.953918,124.252457 677.860840,122.785210 
	C675.356201,121.597130 673.088257,119.910110 669.705322,117.820557 
	C675.322998,117.820557 679.504395,118.171059 683.600830,117.730972 
	C688.610046,117.192833 691.976990,118.944504 694.012817,123.430038 
	C695.970703,127.743744 698.985596,128.403534 703.366394,126.987053 
	C709.496033,125.005104 716.004028,121.262024 721.679321,129.536713 
	C723.457336,125.746216 724.956665,123.001228 726.068787,120.107437 
	C734.658997,97.756111 731.694336,75.963486 722.614563,54.549404 
	C703.070984,8.457193 649.565125,-6.890488 608.440002,21.663868 
	C595.738953,30.482529 587.251831,42.685524 580.185608,56.040478 
	C576.880676,62.286674 571.667297,66.048271 565.565308,69.053215 
	C562.618408,70.504425 559.892090,72.403404 556.634888,74.054184 
	C552.312012,73.436958 548.981445,74.317352 546.415833,77.537529 
	C545.850281,78.247398 544.863525,79.021469 544.036804,79.061310 
	C536.271179,79.435486 531.614441,85.886864 526.927307,90.106133 
	C522.746765,93.869347 518.737732,96.462326 513.777771,98.296783 
	C510.023376,99.685341 507.336700,102.260712 507.232544,106.281929 
	C506.972565,116.314308 504.268677,126.441650 507.616577,136.424774 
	C488.899017,139.593323 470.366638,141.700073 452.400238,146.111710 
	C436.049530,150.126587 420.313568,156.644836 403.814209,162.055344 
	C392.219971,162.041931 381.117249,161.953781 370.017120,162.085617 
	C367.593811,162.114395 365.179871,162.928802 362.722351,163.307678 
	C362.683105,163.233948 362.827148,163.149368 362.870178,162.835999 
	C362.933502,162.312729 362.953766,162.102829 363.145996,161.610748 
	C369.385223,156.332932 374.092316,150.485779 374.795135,142.290268 
	C375.502625,134.040512 370.434296,127.267868 363.422821,126.907692 
	C356.450806,126.549553 349.733032,132.764938 350.115173,140.640411 
	C350.404388,146.599747 352.203827,152.590454 354.072083,158.325851 
	C355.055603,161.345154 355.195526,162.974213 351.597595,163.673752 
	C340.271637,162.840576 329.515228,164.137222 318.818695,167.040695 
	C320.273376,168.256790 321.759094,168.698807 323.253540,169.108978 
	C326.223755,169.924271 329.198761,170.722061 331.839142,171.695038 
	C317.756561,175.683746 304.023407,177.782486 289.672455,171.839706 
	C290.792603,170.545090 291.403290,169.789062 292.065613,169.081329 
	C301.644806,158.845398 299.527832,150.944534 286.012543,146.862991 
	C276.032990,143.849228 265.852264,143.585510 255.952530,146.669754 
	C238.953217,151.965881 222.130875,157.829865 205.231216,163.446350 
	C203.569427,163.998627 201.886597,164.487610 199.882401,165.108566 
	C198.570938,157.273026 195.535965,150.983154 187.083908,151.291168 
	C182.713013,151.450455 178.155350,153.422195 174.187088,155.527130 
	C170.933197,157.253098 168.426132,160.387054 166.424271,162.157364 
	C161.383636,160.041794 157.156189,157.251205 152.612320,156.569336 
	C142.763306,155.091400 132.997894,156.601288 123.764565,160.513657 
	C119.836891,162.177902 116.159599,164.588501 116.043411,169.425201 
	C115.921814,174.487000 119.221985,177.650299 123.340965,179.929474 
	C125.394234,181.065613 127.646690,181.841782 129.809052,182.780777 
	C129.806503,183.283493 129.803970,183.786209 129.801437,184.288925 
	C121.261864,186.208435 112.794609,189.295319 104.169235,189.829666 
	C77.765602,191.465378 51.305893,192.278030 24.857643,193.061234 
	C16.922527,193.296204 8.953494,192.385727 1.000000,192.000000 
z"/>
<path fill="#71ACD4" opacity="1.000000" stroke="none" 
	d="
M782.000000,170.000000 
	C782.000000,182.992828 782.000000,195.985672 782.000000,208.977356 
	C521.666687,208.976196 261.333344,208.976196 1.000000,208.976196 
	C1.000000,205.287704 1.000000,201.623032 1.443134,197.306549 
	C23.212458,196.690842 44.549465,197.164688 65.861748,196.637939 
	C86.499435,196.127838 107.447319,195.987213 127.010605,188.439056 
	C139.643555,183.564880 152.795212,182.160248 165.770508,179.424896 
	C168.253006,178.901550 169.410583,179.530289 170.041718,182.045563 
	C171.052216,186.072784 172.168228,190.108307 173.685455,193.964935 
	C175.647491,198.952194 179.188751,202.555359 184.903473,202.408676 
	C190.410080,202.267334 193.182205,198.046799 194.556168,193.522018 
	C196.529922,187.022095 197.837799,180.295929 199.035141,173.595795 
	C199.531174,170.820023 200.390564,169.134674 203.207428,168.211929 
	C212.545547,165.152939 221.805115,161.854797 231.110870,158.695694 
	C232.183273,158.331635 233.356567,158.264679 235.693939,157.839951 
	C232.913330,160.265305 230.999069,161.613159 229.481232,163.314667 
	C222.948166,170.638336 225.129303,179.686569 234.373062,182.729050 
	C238.105759,183.957642 242.255722,184.865433 246.117310,184.581207 
	C258.621307,183.660873 270.864807,181.314041 282.406067,176.006760 
	C284.118866,175.219116 286.668610,175.040115 288.397858,175.705566 
	C296.674377,178.890518 305.275604,180.581528 313.892273,178.977356 
	C324.965790,176.915787 335.820099,173.677048 347.205627,170.984009 
	C355.285309,171.331558 362.928223,171.640518 370.975830,171.821106 
	C374.273712,171.830002 377.166901,171.967270 380.416260,172.300446 
	C382.917480,172.653183 385.064148,172.965073 387.207397,172.943329 
	C415.660797,172.654694 444.116028,172.444412 472.565491,171.924927 
	C482.016754,171.752335 491.458649,170.829865 500.893860,170.106873 
	C506.178192,169.701920 511.476471,168.291092 516.705750,168.558929 
	C540.748047,169.790298 564.752136,172.282776 588.800476,172.748642 
	C617.902039,173.312393 647.036133,172.398148 676.152039,171.886292 
	C683.771851,171.752335 691.375183,170.724976 698.988098,170.134750 
	C704.582703,169.701035 710.239380,168.601883 715.764221,169.058914 
	C725.313965,169.848877 734.777527,172.667236 744.286865,172.714920 
	C756.853088,172.777893 769.428528,170.991486 782.000000,170.000000 
z"/>
<path fill="#F3F8FB" opacity="1.000000" stroke="none" 
	d="
M346.768860,170.945419 
	C335.820099,173.677048 324.965790,176.915787 313.892273,178.977356 
	C305.275604,180.581528 296.674377,178.890518 288.397858,175.705566 
	C286.668610,175.040115 284.118866,175.219116 282.406067,176.006760 
	C270.864807,181.314041 258.621307,183.660873 246.117310,184.581207 
	C242.255722,184.865433 238.105759,183.957642 234.373062,182.729050 
	C225.129303,179.686569 222.948166,170.638336 229.481232,163.314667 
	C230.999069,161.613159 232.913330,160.265305 235.693939,157.839951 
	C233.356567,158.264679 232.183273,158.331635 231.110870,158.695694 
	C221.805115,161.854797 212.545547,165.152939 203.207428,168.211929 
	C200.390564,169.134674 199.531174,170.820023 199.035141,173.595795 
	C197.837799,180.295929 196.529922,187.022095 194.556168,193.522018 
	C193.182205,198.046799 190.410080,202.267334 184.903473,202.408676 
	C179.188751,202.555359 175.647491,198.952194 173.685455,193.964935 
	C172.168228,190.108307 171.052216,186.072784 170.041718,182.045563 
	C169.410583,179.530289 168.253006,178.901550 165.770508,179.424896 
	C152.795212,182.160248 139.643555,183.564880 127.010605,188.439056 
	C107.447319,195.987213 86.499435,196.127838 65.861748,196.637939 
	C44.549465,197.164688 23.212458,196.690842 1.443134,196.827362 
	C1.000000,195.611115 1.000000,194.222214 1.000000,192.416672 
	C8.953494,192.385727 16.922527,193.296204 24.857643,193.061234 
	C51.305893,192.278030 77.765602,191.465378 104.169235,189.829666 
	C112.794609,189.295319 121.261864,186.208435 129.801437,184.288925 
	C129.803970,183.786209 129.806503,183.283493 129.809052,182.780777 
	C127.646690,181.841782 125.394234,181.065613 123.340965,179.929474 
	C119.221985,177.650299 115.921814,174.487000 116.043411,169.425201 
	C116.159599,164.588501 119.836891,162.177902 123.764565,160.513657 
	C132.997894,156.601288 142.763306,155.091400 152.612320,156.569336 
	C157.156189,157.251205 161.383636,160.041794 166.424271,162.157364 
	C168.426132,160.387054 170.933197,157.253098 174.187088,155.527130 
	C178.155350,153.422195 182.713013,151.450455 187.083908,151.291168 
	C195.535965,150.983154 198.570938,157.273026 199.882401,165.108566 
	C201.886597,164.487610 203.569427,163.998627 205.231216,163.446350 
	C222.130875,157.829865 238.953217,151.965881 255.952530,146.669754 
	C265.852264,143.585510 276.032990,143.849228 286.012543,146.862991 
	C299.527832,150.944534 301.644806,158.845398 292.065613,169.081329 
	C291.403290,169.789062 290.792603,170.545090 289.672455,171.839706 
	C304.023407,177.782486 317.756561,175.683746 332.221527,171.600739 
	C339.272217,168.851181 345.607880,166.363892 351.943512,163.876617 
	C355.195526,162.974213 355.055603,161.345154 354.072083,158.325851 
	C352.203827,152.590454 350.404388,146.599747 350.115173,140.640411 
	C349.733032,132.764938 356.450806,126.549553 363.422821,126.907692 
	C370.434296,127.267868 375.502625,134.040512 374.795135,142.290268 
	C374.092316,150.485779 369.385223,156.332932 362.907104,161.723572 
	C362.606537,162.462173 362.716858,162.805771 362.827148,163.149368 
	C362.827148,163.149368 362.683105,163.233948 362.817078,163.624847 
	C366.609344,165.352371 370.191437,167.524399 373.940491,167.866470 
	C384.516479,168.831497 394.627625,166.329086 404.306610,162.059601 
	C420.313568,156.644836 436.049530,150.126587 452.400238,146.111710 
	C470.366638,141.700073 488.899017,139.593323 507.798767,136.622452 
	C508.811584,137.991394 509.210358,139.220200 509.167328,140.422775 
	C496.550873,141.948761 484.122375,142.445892 472.260742,145.299316 
	C454.249329,149.632111 436.631439,155.600708 418.482574,160.920242 
	C405.837494,166.062500 393.441040,170.765411 380.060120,172.104523 
	C377.166901,171.967270 374.273712,171.830002 370.701355,171.545807 
	C365.868561,169.511215 361.714935,167.623535 357.079987,165.517105 
	C354.051788,167.111313 350.410339,169.028366 346.768860,170.945419 
M239.037399,157.377182 
	C239.553070,157.075562 240.068741,156.773941 241.327652,156.037582 
	C239.868530,156.037582 239.399628,155.959473 238.972122,156.059082 
	C238.526413,156.162949 238.120636,156.438126 237.135941,156.792282 
	C236.890274,157.073685 236.644623,157.355103 236.398972,157.636505 
	C237.062988,157.579193 237.727020,157.521881 239.037399,157.377182 
M155.816391,177.166382 
	C159.634369,176.566864 163.452347,175.967346 167.959045,175.259689 
	C166.681564,172.815216 165.957428,171.429565 165.128235,169.842896 
	C161.487671,172.431534 158.263428,174.724152 154.819244,177.098999 
	C154.819244,177.098999 154.871567,177.383774 154.871567,177.383774 
	C154.871567,177.383774 154.958313,176.945450 155.816391,177.166382 
M233.872284,164.332199 
	C226.840775,171.853806 228.404831,178.004410 238.336197,179.840897 
	C243.264038,180.752151 248.562714,180.476334 253.587830,179.866180 
	C262.919525,178.733124 272.137939,176.842865 280.707581,172.228363 
	C268.792816,159.467926 248.202484,155.883133 233.872284,164.332199 
M150.969055,174.514526 
	C154.884460,171.982025 158.799850,169.449524 162.715240,166.917038 
	C162.631912,166.308823 162.548569,165.700607 162.465225,165.092392 
	C159.973709,163.662125 157.637512,161.493423 154.963455,160.931000 
	C144.094711,158.645081 133.462341,159.988480 123.536964,164.989365 
	C118.744873,167.403839 118.583778,171.410431 122.831200,174.863800 
	C124.576141,176.282547 126.783752,177.316193 128.946625,178.003708 
	C136.526825,180.413269 143.663055,179.146515 150.969055,174.514526 
M280.631683,149.418243 
	C266.927612,147.412781 247.494400,150.786148 242.890121,155.969727 
	C263.712219,156.702332 263.698486,156.725525 282.713196,167.994919 
	C283.801117,168.639679 286.199860,169.043228 286.639435,168.488998 
	C289.326141,165.101730 292.987366,161.648972 293.684692,157.746475 
	C294.458099,153.418442 289.306549,152.216217 285.778992,150.836334 
	C284.394226,150.294632 282.900421,150.031647 280.631683,149.418243 
M176.582367,176.917648 
	C175.516357,177.879089 173.379440,179.144104 173.552414,179.754318 
	C175.037872,184.994522 176.352570,190.429932 178.886612,195.184311 
	C181.361847,199.828369 186.428024,199.959106 189.011658,195.864914 
	C193.557541,188.661179 194.678543,180.497375 195.107330,171.417160 
	C188.737076,173.316162 183.040848,175.014236 176.582367,176.917648 
M359.497955,131.509109 
	C351.741974,137.307404 351.616486,149.618668 359.570526,159.335785 
	C366.169434,154.345413 371.356171,148.629517 370.924377,139.667145 
	C370.614502,133.235626 366.783783,130.351318 359.497955,131.509109 
M187.221970,154.924881 
	C179.627762,154.354355 175.168320,159.488205 170.204407,163.979584 
	C166.781799,167.076385 169.369797,169.517075 170.759903,171.746307 
	C171.424393,172.811874 174.010742,173.452835 175.455658,173.117783 
	C180.474380,171.953934 185.434784,170.447525 190.290237,168.715134 
	C192.265259,168.010468 195.569336,166.088715 195.414581,165.243042 
	C194.851486,162.166107 193.276108,159.195740 191.654053,156.437027 
	C191.136185,155.556259 189.287949,155.457718 187.221970,154.924881 
z"/>
<path fill="#579CC2" opacity="1.000000" stroke="none" 
	d="
M380.416260,172.300461 
	C393.441040,170.765411 405.837494,166.062500 418.871155,161.105316 
	C421.419495,161.490570 423.211792,161.918457 425.011932,161.954559 
	C444.435760,162.344223 463.864258,162.547897 483.283752,163.082291 
	C490.394196,163.277969 497.497131,164.096085 504.579895,164.851639 
	C512.110352,165.654938 519.636841,167.412704 527.308411,164.227020 
	C531.668457,168.114319 536.057617,167.274094 540.597473,165.483185 
	C544.163452,164.076447 547.306580,163.514526 551.663879,164.554565 
	C557.712280,165.998245 564.515198,164.297806 570.991882,163.893036 
	C571.431885,163.865524 571.816406,163.305756 572.276917,163.184967 
	C573.631897,162.829559 575.003967,162.523361 576.384277,162.284073 
	C578.914795,161.845337 581.456055,161.468353 584.346741,161.278717 
	C595.724976,161.653732 606.749084,161.853973 617.773926,161.930084 
	C619.184265,161.939835 620.598999,161.303085 622.380005,161.036621 
	C625.166443,161.734695 627.584595,162.362000 630.306335,163.199921 
	C645.682251,168.092438 660.801697,169.012650 676.372559,163.952545 
	C679.160828,163.328262 681.572205,162.731018 683.983643,162.133774 
	C696.415833,163.848572 708.761047,167.346436 722.021484,163.789337 
	C722.837524,163.461578 722.983887,163.244049 723.040161,162.965851 
	C723.040161,162.965851 722.966736,162.962067 723.410034,163.063919 
	C729.228699,163.122849 734.604004,163.079926 740.214539,163.283142 
	C743.515198,165.598145 746.476501,167.378403 750.565796,165.926132 
	C756.188293,163.929367 762.006592,161.899872 767.503540,167.427322 
	C768.299316,165.456711 768.777771,164.271927 769.256226,163.087158 
	C773.246338,163.673447 777.236511,164.259735 781.613281,164.923004 
	C782.000000,166.388885 782.000000,167.777786 782.000000,169.583344 
	C769.428528,170.991486 756.853088,172.777893 744.286865,172.714920 
	C734.777527,172.667236 725.313965,169.848877 715.764221,169.058914 
	C710.239380,168.601883 704.582703,169.701035 698.988098,170.134750 
	C691.375183,170.724976 683.771851,171.752335 676.152039,171.886292 
	C647.036133,172.398148 617.902039,173.312393 588.800476,172.748642 
	C564.752136,172.282776 540.748047,169.790298 516.705750,168.558929 
	C511.476471,168.291092 506.178192,169.701920 500.893860,170.106873 
	C491.458649,170.829865 482.016754,171.752335 472.565491,171.924927 
	C444.116028,172.444412 415.660797,172.654694 387.207397,172.943329 
	C385.064148,172.965073 382.917480,172.653183 380.416260,172.300461 
z"/>
<path fill="#BDD3E8" opacity="1.000000" stroke="none" 
	d="
M684.235168,161.884125 
	C681.572205,162.731018 679.160828,163.328262 676.021606,163.742035 
	C660.958618,163.070160 646.623840,162.567017 632.286987,162.134705 
	C631.534790,162.112015 630.764587,162.690643 630.002747,162.989304 
	C627.584595,162.362000 625.166443,161.734695 622.136353,160.790665 
	C613.250122,155.564087 604.515442,154.780273 595.265137,157.163254 
	C592.456421,157.886780 589.413574,157.701584 586.336060,157.568558 
	C584.155823,151.151169 582.117432,145.097824 580.509521,138.984833 
	C586.849243,138.266373 592.756775,137.593033 598.667847,136.952393 
	C606.220642,136.133804 613.783630,135.401230 621.321655,134.465652 
	C622.309265,134.343079 623.174927,133.237854 624.097107,132.587738 
	C623.396606,132.144211 622.696167,131.700684 621.743835,130.987915 
	C616.941650,121.505241 612.981506,112.164742 614.338074,102.820068 
	C619.656494,101.678589 624.079834,101.329239 627.895386,99.621811 
	C629.473206,98.915787 630.963074,94.798569 630.281494,93.143509 
	C629.571167,91.418823 626.149841,89.840424 623.996887,89.942963 
	C621.674622,90.053566 619.448547,92.186310 617.041382,93.540550 
	C616.723877,93.797653 616.572571,93.974281 616.190308,94.373703 
	C615.139343,95.291878 614.346252,96.010399 613.352966,96.910355 
	C607.552429,89.533096 603.911804,81.542526 601.930115,72.642616 
	C602.888062,68.119308 600.799316,69.630333 598.872192,70.853050 
	C588.515564,77.424133 578.187439,84.040993 567.777100,90.525665 
	C566.401062,91.382828 564.610840,91.575089 563.013306,91.689590 
	C561.031372,85.569160 559.048584,79.834404 557.065857,74.099640 
	C559.892090,72.403404 562.618408,70.504425 565.565308,69.053215 
	C571.667297,66.048271 576.880676,62.286674 580.185608,56.040478 
	C587.251831,42.685524 595.738953,30.482529 608.440002,21.663868 
	C649.565125,-6.890488 703.070984,8.457193 722.614563,54.549404 
	C731.694336,75.963486 734.658997,97.756111 726.068787,120.107437 
	C724.956665,123.001228 723.457336,125.746216 721.679321,129.536713 
	C716.004028,121.262024 709.496033,125.005104 703.366394,126.987053 
	C698.985596,128.403534 695.970703,127.743744 694.012817,123.430038 
	C691.976990,118.944504 688.610046,117.192833 683.600830,117.730972 
	C679.504395,118.171059 675.322998,117.820557 669.705322,117.820557 
	C673.088257,119.910110 675.356201,121.597130 677.860840,122.785210 
	C680.953918,124.252457 682.534851,126.333435 682.113220,129.812134 
	C681.304993,136.480728 684.101196,140.411194 690.745483,142.058258 
	C693.736389,142.799667 697.184814,143.467133 697.181213,148.278168 
	C697.177734,152.897308 696.466614,156.394501 691.661499,158.147476 
	C689.176575,159.054016 686.872498,160.456207 684.235168,161.884125 
M681.573425,24.918547 
	C677.873352,21.442408 673.767883,21.311270 669.762695,24.040112 
	C666.211670,26.459551 664.436768,29.969320 665.698975,34.390949 
	C666.903015,38.608604 669.732849,41.325665 674.110657,41.813580 
	C678.243958,42.274246 681.602478,40.523670 683.690369,36.856174 
	C686.049683,32.711960 685.232178,28.894590 681.573425,24.918547 
z"/>
<path fill="#58595B" opacity="1.000000" stroke="none" 
	d="
M556.634888,74.054192 
	C559.048584,79.834404 561.031372,85.569160 563.217163,91.943817 
	C563.981018,93.737686 564.541748,94.891663 565.119507,96.417984 
	C569.764709,109.715309 574.392944,122.640297 579.041199,135.879822 
	C579.400513,137.144409 579.739746,138.094437 580.078979,139.044479 
	C582.117432,145.097824 584.155823,151.151169 586.177246,157.861023 
	C585.437805,159.366882 584.715271,160.216232 583.992798,161.065598 
	C581.456055,161.468353 578.914795,161.845337 576.384277,162.284073 
	C575.003967,162.523361 573.631897,162.829559 572.276917,163.184967 
	C571.816406,163.305756 571.431885,163.865524 570.991882,163.893036 
	C564.515198,164.297806 557.712280,165.998245 551.663879,164.554565 
	C547.306580,163.514526 544.163452,164.076447 540.597473,165.483185 
	C536.057617,167.274094 531.668457,168.114319 527.137329,163.938141 
	C520.702637,155.995071 512.521851,150.173416 509.609131,140.449005 
	C509.210358,139.220200 508.811584,137.991394 508.230591,136.564911 
	C504.268677,126.441650 506.972565,116.314308 507.232544,106.281929 
	C507.336700,102.260712 510.023376,99.685341 513.777771,98.296783 
	C518.737732,96.462326 522.746765,93.869347 526.927307,90.106133 
	C531.614441,85.886864 536.271179,79.435486 544.036804,79.061310 
	C544.863525,79.021469 545.850281,78.247398 546.415833,77.537529 
	C548.981445,74.317352 552.312012,73.436958 556.634888,74.054192 
z"/>
<path fill="#BBD2E7" opacity="1.000000" stroke="none" 
	d="
M739.979370,163.036987 
	C734.604004,163.079926 729.228699,163.122849 723.407410,163.100616 
	C729.992188,157.783401 736.994263,153.182205 746.731445,155.522415 
	C748.857483,156.033401 751.939514,152.347672 754.650146,150.708527 
	C757.230652,149.147995 759.755493,147.283813 762.570251,146.377930 
	C765.804932,145.336884 768.134766,147.136749 768.586792,150.534943 
	C769.061890,154.106781 769.159851,157.728790 768.773987,161.678925 
	C763.315674,162.020950 758.501099,161.875793 753.697632,162.044373 
	C749.118896,162.205078 744.551636,162.692947 739.979370,163.036987 
z"/>
<path fill="#5B9EC3" opacity="1.000000" stroke="none" 
	d="
M403.814209,162.055359 
	C394.627625,166.329086 384.516479,168.831497 373.940491,167.866470 
	C370.191437,167.524399 366.609344,165.352371 362.856323,163.698578 
	C365.179871,162.928802 367.593811,162.114395 370.017120,162.085617 
	C381.117249,161.953781 392.219971,162.041931 403.814209,162.055359 
z"/>
<path fill="#579CC2" opacity="1.000000" stroke="none" 
	d="
M351.597595,163.673752 
	C345.607880,166.363892 339.272217,168.851181 332.554199,171.432770 
	C329.198761,170.722061 326.223755,169.924271 323.253540,169.108978 
	C321.759094,168.698807 320.273376,168.256790 318.818695,167.040695 
	C329.515228,164.137222 340.271637,162.840576 351.597595,163.673752 
z"/>
<path fill="#B1C8DE" opacity="1.000000" stroke="none" 
	d="
M740.214539,163.283142 
	C744.551636,162.692947 749.118896,162.205078 753.697632,162.044373 
	C758.501099,161.875793 763.315674,162.020950 768.601196,162.035660 
	C769.104675,162.216736 769.132263,162.391159 769.208069,162.826385 
	C768.777771,164.271927 768.299316,165.456711 767.503540,167.427322 
	C762.006592,161.899872 756.188293,163.929367 750.565796,165.926132 
	C746.476501,167.378403 743.515198,165.598145 740.214539,163.283142 
z"/>
<path fill="#BBD2E7" opacity="1.000000" stroke="none" 
	d="
M722.890991,163.091248 
	C722.983887,163.244049 722.837524,163.461578 722.428223,163.717438 
	C722.379272,163.585495 722.541443,163.385559 722.890991,163.091248 
z"/>
<path fill="#5B9EC3" opacity="1.000000" stroke="none" 
	d="
M362.870178,162.835999 
	C362.716858,162.805771 362.606537,162.462173 362.735107,162.005768 
	C362.953766,162.102829 362.933502,162.312729 362.870178,162.835999 
z"/>
<path fill="#5FA0C5" opacity="1.000000" stroke="none" 
	d="
M347.205627,170.984009 
	C350.410339,169.028366 354.051788,167.111313 357.079987,165.517105 
	C361.714935,167.623535 365.868561,169.511215 370.296692,171.674194 
	C362.928223,171.640518 355.285309,171.331558 347.205627,170.984009 
z"/>
<path fill="#72ACD4" opacity="1.000000" stroke="none" 
	d="
M509.167328,140.422775 
	C512.521851,150.173416 520.702637,155.995071 526.830688,163.753067 
	C519.636841,167.412704 512.110352,165.654938 504.579895,164.851639 
	C497.497131,164.096085 490.394196,163.277969 483.283752,163.082291 
	C463.864258,162.547897 444.435760,162.344223 425.011932,161.954559 
	C423.211792,161.918457 421.419495,161.490570 419.234985,161.059509 
	C436.631439,155.600708 454.249329,149.632111 472.260742,145.299316 
	C484.122375,142.445892 496.550873,141.948761 509.167328,140.422775 
z"/>
<path fill="#73ADD5" opacity="1.000000" stroke="none" 
	d="
M234.174713,164.107727 
	C248.202484,155.883133 268.792816,159.467926 280.707581,172.228363 
	C272.137939,176.842865 262.919525,178.733124 253.587830,179.866180 
	C248.562714,180.476334 243.264038,180.752151 238.336197,179.840897 
	C228.404831,178.004410 226.840775,171.853806 234.174713,164.107727 
z"/>
<path fill="#73ADD5" opacity="1.000000" stroke="none" 
	d="
M150.638077,174.687057 
	C143.663055,179.146515 136.526825,180.413269 128.946625,178.003708 
	C126.783752,177.316193 124.576141,176.282547 122.831200,174.863800 
	C118.583778,171.410431 118.744873,167.403839 123.536964,164.989365 
	C133.462341,159.988480 144.094711,158.645081 154.963455,160.931000 
	C157.637512,161.493423 159.973709,163.662125 162.465225,165.092392 
	C162.548569,165.700607 162.631912,166.308823 162.715240,166.917038 
	C158.799850,169.449524 154.884460,171.982025 150.638077,174.687057 
z"/>
<path fill="#71ACD4" opacity="1.000000" stroke="none" 
	d="
M281.043976,149.529999 
	C282.900421,150.031647 284.394226,150.294632 285.778992,150.836334 
	C289.306549,152.216217 294.458099,153.418442 293.684692,157.746475 
	C292.987366,161.648972 289.326141,165.101730 286.639435,168.488998 
	C286.199860,169.043228 283.801117,168.639679 282.713196,167.994919 
	C263.698486,156.725525 263.712219,156.702332 242.890121,155.969727 
	C247.494400,150.786148 266.927612,147.412781 281.043976,149.529999 
z"/>
<path fill="#74AED5" opacity="1.000000" stroke="none" 
	d="
M176.963501,176.814987 
	C183.040848,175.014236 188.737076,173.316162 195.107330,171.417160 
	C194.678543,180.497375 193.557541,188.661179 189.011658,195.864914 
	C186.428024,199.959106 181.361847,199.828369 178.886612,195.184311 
	C176.352570,190.429932 175.037872,184.994522 173.552414,179.754318 
	C173.379440,179.144104 175.516357,177.879089 176.963501,176.814987 
z"/>
<path fill="#74AED5" opacity="1.000000" stroke="none" 
	d="
M359.863464,131.350647 
	C366.783783,130.351318 370.614502,133.235626 370.924377,139.667145 
	C371.356171,148.629517 366.169434,154.345413 359.570526,159.335785 
	C351.616486,149.618668 351.741974,137.307404 359.863464,131.350647 
z"/>
<path fill="#74AED5" opacity="1.000000" stroke="none" 
	d="
M187.635193,154.963074 
	C189.287949,155.457718 191.136185,155.556259 191.654053,156.437027 
	C193.276108,159.195740 194.851486,162.166107 195.414581,165.243042 
	C195.569336,166.088715 192.265259,168.010468 190.290237,168.715134 
	C185.434784,170.447525 180.474380,171.953934 175.455658,173.117783 
	C174.010742,173.452835 171.424393,172.811874 170.759903,171.746307 
	C169.369797,169.517075 166.781799,167.076385 170.204407,163.979584 
	C175.168320,159.488205 179.627762,154.354355 187.635193,154.963074 
z"/>
<path fill="#7BB2D7" opacity="1.000000" stroke="none" 
	d="
M155.039169,177.016785 
	C158.263428,174.724152 161.487671,172.431534 165.128235,169.842896 
	C165.957428,171.429565 166.681564,172.815216 167.959045,175.259689 
	C163.452347,175.967346 159.634369,176.566864 155.406525,177.074921 
	C154.996674,176.983459 155.039169,177.016769 155.039169,177.016785 
z"/>
<path fill="#71ACD4" opacity="1.000000" stroke="none" 
	d="
M237.697388,156.638412 
	C238.120636,156.438126 238.526413,156.162949 238.972122,156.059082 
	C239.399628,155.959473 239.868530,156.037582 241.327652,156.037582 
	C240.068741,156.773941 239.553070,157.075562 238.542023,157.213303 
	C237.930237,156.912415 237.813812,156.775421 237.697388,156.638412 
z"/>
<path fill="#71ACD4" opacity="1.000000" stroke="none" 
	d="
M238.218842,157.256989 
	C237.727020,157.521881 237.062988,157.579193 236.398972,157.636505 
	C236.644623,157.355103 236.890274,157.073685 237.416656,156.715347 
	C237.813812,156.775421 237.930237,156.912415 238.218842,157.256989 
z"/>
<path fill="#7BB2D7" opacity="1.000000" stroke="none" 
	d="
M154.977493,176.964447 
	C154.958313,176.945450 154.871567,177.383774 154.871567,177.383774 
	C154.871567,177.383774 154.819244,177.098999 154.929199,177.057892 
	C155.039169,177.016769 154.996674,176.983459 154.977493,176.964447 
z"/>
<path fill="#B1C8DE" opacity="1.000000" stroke="none" 
	d="
M630.306335,163.199921 
	C630.764587,162.690643 631.534790,162.112015 632.286987,162.134705 
	C646.623840,162.567017 660.958618,163.070160 675.644775,163.769089 
	C660.801697,169.012650 645.682251,168.092438 630.306335,163.199921 
z"/>
<path fill="#73ADD5" opacity="1.000000" stroke="none" 
	d="
M584.346741,161.278717 
	C584.715271,160.216232 585.437805,159.366882 586.319092,158.225067 
	C589.413574,157.701584 592.456421,157.886780 595.265137,157.163254 
	C604.515442,154.780273 613.250122,155.564087 621.768066,160.719879 
	C620.598999,161.303085 619.184265,161.939835 617.773926,161.930084 
	C606.749084,161.853973 595.724976,161.653732 584.346741,161.278717 
z"/>
<path fill="#FDFDFD" opacity="1.000000" stroke="none" 
	d="
M681.841187,25.185766 
	C685.232178,28.894590 686.049683,32.711960 683.690369,36.856174 
	C681.602478,40.523670 678.243958,42.274246 674.110657,41.813580 
	C669.732849,41.325665 666.903015,38.608604 665.698975,34.390949 
	C664.436768,29.969320 666.211670,26.459551 669.762695,24.040112 
	C673.767883,21.311270 677.873352,21.442408 681.841187,25.185766 
z"/>
<path fill="#767A7F" opacity="1.000000" stroke="none" 
	d="
M601.697144,72.850113 
	C603.911804,81.542526 607.552429,89.533096 613.352966,96.910355 
	C614.346252,96.010399 615.139343,95.291878 616.395508,94.654823 
	C617.006897,94.914635 617.155334,95.092979 617.147095,95.603477 
	C615.563477,97.889534 615.875732,99.797394 618.320435,99.790321 
	C621.285278,99.781731 624.367615,99.070358 627.145020,98.002258 
	C628.116577,97.628616 629.176453,94.820534 628.696594,93.967598 
	C627.993591,92.717735 625.838379,91.423058 624.487915,91.596336 
	C622.334778,91.872620 620.334595,93.341042 618.004150,94.079803 
	C617.552551,93.715141 617.366516,93.576027 617.180542,93.436920 
	C619.448547,92.186310 621.674622,90.053566 623.996887,89.942963 
	C626.149841,89.840424 629.571167,91.418823 630.281494,93.143509 
	C630.963074,94.798569 629.473206,98.915787 627.895386,99.621811 
	C624.079834,101.329239 619.656494,101.678589 614.338074,102.820068 
	C612.981506,112.164742 616.941650,121.505241 621.660645,131.257050 
	C620.803772,131.770920 619.778198,131.746445 618.830627,131.366821 
	C617.014709,125.394547 613.590515,119.789177 613.547241,114.157867 
	C613.458923,102.650024 609.095947,93.094391 603.497803,83.661659 
	C601.767151,80.745575 600.420776,77.601395 599.001221,74.337830 
	C599.413574,73.736740 599.723267,73.359489 600.016113,72.995422 
	C599.999329,73.008621 599.970642,73.040596 600.250977,72.952965 
	C600.919861,72.860260 601.308533,72.855186 601.697144,72.850113 
z"/>
<path fill="#424347" opacity="1.000000" stroke="none" 
	d="
M600.032959,72.982231 
	C599.723267,73.359489 599.413574,73.736740 598.706421,74.532700 
	C587.240112,81.982811 576.171326,89.014229 565.102539,96.045639 
	C564.541748,94.891663 563.981018,93.737686 563.216309,92.329498 
	C564.610840,91.575089 566.401062,91.382828 567.777100,90.525665 
	C578.187439,84.040993 588.515564,77.424133 598.872192,70.853050 
	C600.799316,69.630333 602.888062,68.119308 601.930115,72.642624 
	C601.308533,72.855186 600.919861,72.860260 600.242798,72.876648 
	C599.954285,72.887962 599.797852,72.832840 599.797852,72.832840 
	C599.797852,72.832840 600.032959,72.982231 600.032959,72.982231 
z"/>
<path fill="#424347" opacity="1.000000" stroke="none" 
	d="
M618.752625,131.721970 
	C619.778198,131.746445 620.803772,131.770920 621.912476,131.526260 
	C622.696167,131.700684 623.396606,132.144211 624.097107,132.587738 
	C623.174927,133.237854 622.309265,134.343079 621.321655,134.465652 
	C613.783630,135.401230 606.220642,136.133804 598.667847,136.952393 
	C592.756775,137.593033 586.849243,138.266373 580.509521,138.984833 
	C579.739746,138.094437 579.400513,137.144409 579.494507,135.974731 
	C592.869385,134.410706 605.811035,133.066330 618.752625,131.721970 
z"/>
<path fill="#767A7F" opacity="1.000000" stroke="none" 
	d="
M616.653381,94.455170 
	C616.572571,93.974281 616.723877,93.797653 617.041382,93.540550 
	C617.366516,93.576027 617.552551,93.715141 617.892212,94.285286 
	C617.851807,94.972679 617.604431,95.157684 617.303711,95.271317 
	C617.155334,95.092979 617.006897,94.914635 616.653381,94.455170 
z"/>
<path fill="#BCD2E7" opacity="1.000000" stroke="none" 
	d="
M618.830627,131.366821 
	C605.811035,133.066330 592.869385,134.410706 579.474487,135.660172 
	C574.392944,122.640297 569.764709,109.715309 565.119507,96.417984 
	C576.171326,89.014229 587.240112,81.982811 598.603699,74.756531 
	C600.420776,77.601395 601.767151,80.745575 603.497803,83.661659 
	C609.095947,93.094391 613.458923,102.650024 613.547241,114.157867 
	C613.590515,119.789177 617.014709,125.394547 618.830627,131.366821 
z"/>
<path fill="#BCD2E7" opacity="1.000000" stroke="none" 
	d="
M617.147095,95.603477 
	C617.604431,95.157684 617.851807,94.972679 618.157776,94.510834 
	C620.334595,93.341042 622.334778,91.872620 624.487915,91.596336 
	C625.838379,91.423058 627.993591,92.717735 628.696594,93.967598 
	C629.176453,94.820534 628.116577,97.628616 627.145020,98.002258 
	C624.367615,99.070358 621.285278,99.781731 618.320435,99.790321 
	C615.875732,99.797394 615.563477,97.889534 617.147095,95.603477 
z"/>
<path fill="#767A7F" opacity="1.000000" stroke="none" 
	d="
M600.016113,72.995422 
	C600.032959,72.982231 599.797852,72.832840 599.797852,72.832840 
	C599.797852,72.832840 599.954285,72.887962 599.962463,72.964279 
	C599.970642,73.040596 599.999329,73.008621 600.016113,72.995422 
z"/>
</svg>